<svg width="64" height="64" viewBox="0 0 64 64" fill="none" xmlns="http://www.w3.org/2000/svg">
<g clip-path="url(#clip0_33_2)">
<path fill-rule="evenodd" clip-rule="evenodd" d="M26.168 19.7844C27.2301 20.8783 27.2822 22.7091 26.2845 23.8735L19.1327 32.2206L26.3415 41.1952C27.3046 42.3942 27.1989 44.2221 26.1053 45.2781C25.0117 46.334 23.3444 46.218 22.3813 45.019L12 32.095L22.4383 19.9122C23.4361 18.7477 25.1059 18.6905 26.168 19.7844Z" fill="black"/>
<path fill-rule="evenodd" clip-rule="evenodd" d="M36.8875 45.2156C35.7546 44.1217 35.6989 42.2909 36.7632 41.1265L44.3918 32.7794L36.7024 23.8048C35.675 22.6058 35.7879 20.7779 36.9544 19.7219C38.1209 18.666 39.8993 18.782 40.9266 19.981L52 32.905L40.8658 45.0878C39.8015 46.2523 38.0204 46.3095 36.8875 45.2156Z" fill="black"/>
<path d="M32.0435 64C27.4576 64 23.1909 63.221 19.2435 61.6629C15.3542 60.0449 11.9583 57.7978 9.05578 54.9213C6.21134 51.985 3.97642 48.5993 2.35102 44.764C0.783674 40.8689 0 36.6142 0 32C0 27.3858 0.783674 23.1611 2.35102 19.3258C3.97642 15.4307 6.21134 12.0449 9.05578 9.16854C11.9583 6.23221 15.3542 3.98502 19.2435 2.42697C23.1329 0.808989 27.3995 0 32.0435 0C36.6295 0 40.8671 0.808989 44.7565 2.42697C48.6458 3.98502 52.0127 6.20225 54.8571 9.07865C57.7596 11.9551 59.9946 15.3408 61.5619 19.236C63.1873 23.1311 64 27.3858 64 32C64 36.6142 63.1873 40.8689 61.5619 44.764C59.9946 48.6592 57.7596 52.0449 54.8571 54.9213C52.0127 57.7978 48.6458 60.0449 44.7565 61.6629C40.8671 63.221 36.6295 64 32.0435 64ZM32.0435 58.0674C35.7007 58.0674 39.0676 57.4382 42.1442 56.1798C45.2789 54.8614 47.9782 53.0337 50.2422 50.6966C52.5642 48.2996 54.3637 45.5431 55.6408 42.427C56.9179 39.2509 57.5565 35.7753 57.5565 32C57.5565 28.2247 56.9179 24.779 55.6408 21.6629C54.3637 18.4869 52.5642 15.7303 50.2422 13.3933C47.9782 10.9963 45.2789 9.16854 42.1442 7.91011C39.0676 6.59176 35.7007 5.93258 32.0435 5.93258C28.3864 5.93258 24.9905 6.59176 21.8558 7.91011C18.7211 9.16854 15.9927 10.9963 13.6707 13.3933C11.4068 15.7303 9.60725 18.4869 8.27211 21.6629C6.99501 24.779 6.35646 28.2247 6.35646 32C6.35646 35.7154 6.99501 39.1611 8.27211 42.3371C9.60725 45.5131 11.4068 48.2996 13.6707 50.6966C15.9927 53.0337 18.7211 54.8614 21.8558 56.1798C24.9905 57.4382 28.3864 58.0674 32.0435 58.0674Z" fill="black"/>
</g>
<defs>
<clipPath id="clip0_33_2">
<rect width="64" height="64" fill="white"/>
</clipPath>
</defs>
</svg>
