<svg width="160" height="32" viewBox="0 0 290 62" fill="none"
    xmlns="http://www.w3.org/2000/svg">
    <path fill-rule="evenodd" clip-rule="evenodd" d="M24.027 24.9067C24.6308 25.4739 24.6605 26.4232 24.0933 27.027L20.0275 31.3551L24.1257 36.0086C24.6732 36.6303 24.6131 37.5782 23.9914 38.1257C23.3697 38.6732 22.4218 38.6131 21.8743 37.9914L15.9725 31.29L21.9067 24.973C22.4739 24.3692 23.4232 24.3395 24.027 24.9067Z" fill="black" />
    <path fill-rule="evenodd" clip-rule="evenodd" d="M29.973 38.0933C29.3692 37.5261 29.3395 36.5768 29.9067 35.973L33.9726 31.6449L29.8743 26.9914C29.3268 26.3697 29.3869 25.4218 30.0086 24.8743C30.6303 24.3268 31.5782 24.3869 32.1257 25.0086L38.0275 31.71L32.0933 38.027C31.5261 38.6308 30.5768 38.6605 29.973 38.0933Z" fill="black" />
    <path d="M252.613 48V14.4H256.165V44.928H274.981V48H252.613Z" fill="black" />
    <path d="M223.671 29.424H241.431V32.448H223.671V29.424ZM224.055 44.928H244.263V48H220.503V14.4H243.543V17.472H224.055V44.928Z" fill="black" />
    <path d="M196.024 48.288C191.736 48.288 188.36 47.056 185.896 44.592C183.432 42.128 182.2 38.48 182.2 33.648V14.4H185.752V33.504C185.752 37.472 186.648 40.4 188.44 42.288C190.232 44.176 192.76 45.12 196.024 45.12C199.32 45.12 201.864 44.176 203.656 42.288C205.448 40.4 206.344 37.472 206.344 33.504V14.4H209.8V33.648C209.8 38.48 208.568 42.128 206.104 44.592C203.672 47.056 200.312 48.288 196.024 48.288Z" fill="black" />
    <path d="M155.281 30.672H173.041V33.744H155.281V30.672ZM155.665 48H152.113V14.4H175.153V17.472H155.665V48Z" fill="black" />
    <path d="M137.628 48V14.4H141.18V48H137.628Z" fill="black" />
    <path d="M98.5814 48V14.4H101.509L124.693 43.584H123.157V14.4H126.661V48H123.733L100.597 18.816H102.133V48H98.5814Z" fill="black" />
    <path d="M52.7376 48V14.4H55.6656L71.0256 40.608H69.4896L84.7056 14.4H87.6336V48H84.2256V19.728H85.0416L71.0256 43.728H69.3456L55.2336 19.728H56.1456V48H52.7376Z" fill="black" />
    <path d="M27.16 48.288C24.632 48.288 22.28 47.872 20.104 47.04C17.96 46.176 16.088 44.976 14.488 43.44C12.92 41.872 11.688 40.064 10.792 38.016C9.928 35.936 9.496 33.664 9.496 31.2C9.496 28.736 9.928 26.48 10.792 24.432C11.688 22.352 12.92 20.544 14.488 19.008C16.088 17.44 17.96 16.24 20.104 15.408C22.248 14.544 24.6 14.112 27.16 14.112C29.688 14.112 32.024 14.544 34.168 15.408C36.312 16.24 38.168 17.424 39.736 18.96C41.336 20.496 42.568 22.304 43.432 24.384C44.328 26.464 44.776 28.736 44.776 31.2C44.776 33.664 44.328 35.936 43.432 38.016C42.568 40.096 41.336 41.904 39.736 43.44C38.168 44.976 36.312 46.176 34.168 47.04C32.024 47.872 29.688 48.288 27.16 48.288ZM27.16 45.12C29.176 45.12 31.032 44.784 32.728 44.112C34.456 43.408 35.944 42.432 37.192 41.184C38.472 39.904 39.464 38.432 40.168 36.768C40.872 35.072 41.224 33.216 41.224 31.2C41.224 29.184 40.872 27.344 40.168 25.68C39.464 23.984 38.472 22.512 37.192 21.264C35.944 19.984 34.456 19.008 32.728 18.336C31.032 17.632 29.176 17.28 27.16 17.28C25.144 17.28 23.272 17.632 21.544 18.336C19.816 19.008 18.312 19.984 17.032 21.264C15.784 22.512 14.792 23.984 14.056 25.68C13.352 27.344 13 29.184 13 31.2C13 33.184 13.352 35.024 14.056 36.72C14.792 38.416 15.784 39.904 17.032 41.184C18.312 42.432 19.816 43.408 21.544 44.112C23.272 44.784 25.144 45.12 27.16 45.12Z" fill="black" />
</svg>