<svg width="893" height="439" viewBox="0 0 893 439" fill="none" xmlns="http://www.w3.org/2000/svg">
<g clip-path="url(#clip0_138_2)">
<rect width="893" height="439" rx="16" fill="url(#paint0_linear_138_2)"/>
<path fill-rule="evenodd" clip-rule="evenodd" d="M431.008 186.038C434.194 189.036 434.351 194.054 431.358 197.245L409.902 220.122L431.529 244.719C434.418 248.005 434.101 253.015 430.82 255.909C427.539 258.803 422.537 258.486 419.648 255.199L388.504 219.778L419.819 186.388C422.812 183.197 427.822 183.04 431.008 186.038Z" fill="black" fill-opacity="0.56"/>
<path fill-rule="evenodd" clip-rule="evenodd" d="M462 255.738C458.814 252.74 458.657 247.722 461.65 244.531L483.106 221.654L461.479 197.057C458.59 193.771 458.907 188.761 462.188 185.867C465.469 182.973 470.471 183.29 473.36 186.577L504.504 221.998L473.189 255.388C470.196 258.579 465.186 258.736 462 255.738Z" fill="black" fill-opacity="0.56"/>
<path d="M447.379 309.668C434.015 309.668 421.581 307.469 410.078 303.07C398.744 298.503 388.848 292.159 380.39 284.039C372.101 275.75 365.588 266.193 360.851 255.366C356.284 244.37 354 232.36 354 219.334C354 206.308 356.284 194.382 360.851 183.556C365.588 172.56 372.101 163.002 380.39 154.882C388.848 146.593 398.744 140.249 410.078 135.851C421.412 131.284 433.846 129 447.379 129C460.743 129 473.092 131.284 484.426 135.851C495.76 140.249 505.572 146.509 513.861 154.628C522.319 162.748 528.832 172.306 533.399 183.302C538.136 194.298 540.504 206.308 540.504 219.334C540.504 232.36 538.136 244.37 533.399 255.366C528.832 266.362 522.319 275.919 513.861 284.039C505.572 292.159 495.76 298.503 484.426 303.07C473.092 307.469 460.743 309.668 447.379 309.668ZM447.379 292.921C458.036 292.921 467.848 291.144 476.814 287.592C485.948 283.87 493.815 278.711 500.412 272.113C507.179 265.347 512.423 257.565 516.144 248.769C519.866 239.803 521.727 229.991 521.727 219.334C521.727 208.677 519.866 198.95 516.144 190.153C512.423 181.187 507.179 173.406 500.412 166.808C493.815 160.042 485.948 154.882 476.814 151.33C467.848 147.608 458.036 145.747 447.379 145.747C436.722 145.747 426.825 147.608 417.69 151.33C408.556 154.882 400.605 160.042 393.838 166.808C387.241 173.406 381.997 181.187 378.106 190.153C374.384 198.95 372.524 208.677 372.524 219.334C372.524 229.822 374.384 239.549 378.106 248.515C381.997 257.481 387.241 265.347 393.838 272.113C400.605 278.711 408.556 283.87 417.69 287.592C426.825 291.144 436.722 292.921 447.379 292.921Z" fill="black" fill-opacity="0.56"/>
</g>
<defs>
<linearGradient id="paint0_linear_138_2" x1="0" y1="219.5" x2="893" y2="219.5" gradientUnits="userSpaceOnUse">
<stop stop-color="#7CFC8B"/>
<stop offset="1" stop-color="#3EFFE5"/>
</linearGradient>
<clipPath id="clip0_138_2">
<rect width="893" height="439" fill="white"/>
</clipPath>
</defs>
</svg>
